<svg width="12" height="8" viewBox="0 0 12 8" fill="none" xmlns="http://www.w3.org/2000/svg">
<path d="M1.20401 1H10.796L6.00001 6.481L1.20401 1ZM0.451013 1.659L5.24701 7.139C5.34088 7.24641 5.45663 7.3325 5.5865 7.39148C5.71638 7.45046 5.85737 7.48098 6.00001 7.48098C6.14266 7.48098 6.28365 7.45046 6.41352 7.39148C6.5434 7.3325 6.65915 7.24641 6.75301 7.139L11.549 1.659C12.115 1.012 11.655 3.67706e-07 10.796 3.67706e-07H1.20401C1.01177 -0.000164459 0.823552 0.0550878 0.661902 0.159141C0.500251 0.263194 0.37202 0.411637 0.292564 0.586693C0.213108 0.761749 0.185796 0.955998 0.213898 1.14618C0.242 1.33636 0.324324 1.51441 0.451013 1.659Z" fill="black"/>
</svg>
